<svg xmlns="http://www.w3.org/2000/svg" viewBox="0 0 719.09 698"><defs><style>.a{fill:#d37728;}.a,.b,.e{stroke:#231f20;stroke-miterlimit:10;}.b{fill:#f9ed24;}.c{fill:#f9f9fa;}.d{fill:#f9f5f2;}.e{fill:#a03f22;}.f{fill:#79c143;}.g{fill:#dd7f38;}.h{fill:#722818;}.i{fill:#4a7d3a;}.j{fill:#eb9053;}.k{fill:#5d9541;}.l{fill:#4b7d3a;}.m{fill:#a4cd7d;}.n{fill:#5b1a10;}.o{fill:#f8a06d;}.p{fill:#f6ceb3;}</style></defs><title>borger-notext</title><path class="a" d="M849.87,297.7C908.59,369.37,770.35,431.47,623,550.45S374.83,800.22,316.11,728.56c-51.51-62.88-63.16-29.8,224-261.62C832.7,230.78,795.61,231.47,849.87,297.7Z" transform="translate(-145.11 -51.48)"/><path class="b" d="M785.39,241.9c-3.62-4.37-50.64,8.34-50.43,22.58L304.88,609.72c-13.28-3.59-37.71,46.37-36.19,55.89l7.05,59c3.62,4.37,3.18-40.47,28.31-67.13L439.85,547l124.5-74.32,110.86-116,113.37-86.92c22-16.8,57.12-11.59,53.5-16Z" transform="translate(-145.11 -51.48)"/><path class="c" d="M567.78,463.42c-3.78.66-7.32-1.56-7.92-5s2-6.7,5.75-7.37,7.32,1.56,7.92,5S571.55,462.75,567.78,463.42Z" transform="translate(-145.11 -51.48)"/><path class="d" d="M584.76,432.38c-3.33,1.14,37.87-39.75,69.6-67.65,13.93-12.25,51.17-41.46,64.65-52.34,24-19.36,51-42.64,52.44-41,1.89,2.13-12.09,13-33.42,32-5.13,4.57-16.37,16-22.52,21.4-14.45,12.71-37.27,24.76-56.31,43.42-10.55,10.35-40.36,38.94-48.75,45.18C601.09,420.36,588.35,431.15,584.76,432.38Z" transform="translate(-145.11 -51.48)"/><path class="e" d="M727.22,195.65c-2.07-2.5-39.06,19.07-46.72,23.18-29.35,15.75-45.06,34.72-47.94,37.1L323,512.1c-5.65,4.67-42.77,27.27-61.64,61.64L237.7,607.37l-9.5,29.37,2.68,20.54,21.19,8.13c4.22,5.11,52.6-14.18,58.25-18.86L356.6,614.6,758,271.62l17.63-18.93c5.65-4.68,13.2-12.21,12.11-22.95l-7-28.58-11.8-13.72L748,187.18Z" transform="translate(-145.11 -51.48)"/><path class="f" d="M210.08,608.69l21.41-8,515-451.82s43.44,51.29,12.79,57.28-62.48,4.57-55.6,21.56-16.44,30.93-27.44,28.45-43.3,1.1-31.86,31-42.85,31-40,18.83-50.94,18.49-24.15,31.36-38.27,49.92-44.28,29.07-59,16-34.21,27.55-31.64,57.64-39,28.62-72.82,20.55-39.38,31.32S395.11,506.22,389,479.49s-64.6,36.36-32.78,33.62-33.55,51.47-37.59,33S260,566.92,283.29,577.72c12.49,5.78-3.52,1.08-21.69,14.24-8.06,5.84-7.79,23-17.9,32.7-14.64,14-36.45,12.33-36.33,7" transform="translate(-145.11 -51.48)"/><path class="f" d="M710.22,137.77c-3.24-3.69-37.1,6.48-43.1,11.75l-459,418.62c-6,5.26-14.75,8.4-15.94,14.88,0,0,6.71,44.39,16.6,43.16L362.6,489.89l379.09-332.4c6-5.26,8.24-12.51,5-16.2Z" transform="translate(-145.11 -51.48)"/><path class="g" d="M846.06,300c8.6,10.11,3.58,18.29,2.78,27.78-1.89,22.35-19.05,45.55-58.34,73.08-39.77,27.88-93.74,61.83-151.85,108.78-139.86,113-209,222-257.34,163-11.11-13.55-28.9-29.07-16.54-49,8.16-13.19,29.74-41.79,76.53-68.8,33.82-19.52,67.75-27.74,124.3-65.7,53.81-36.12,80.64-95.67,108.16-120,23.59-20.86,56.09-47.07,72.91-60.17C833.58,241.24,826.75,277.22,846.06,300Z" transform="translate(-145.11 -51.48)"/><path class="h" d="M390.74,508.48c0-.37,0-.73.05-1.09.13-2-.3,1.64.09-.58a42.06,42.06,0,0,1,1.06-4.33c.2-.71.44-1.41.68-2.11.07-.21,1-2.32.24-.69.22-.5.49-1,.76-1.45.09-.12.17-.25.26-.38a5.4,5.4,0,0,1-3.31,2.53c4-.74,6.24-5.55,5.23-9.23-1.15-4.2-5.2-6-9.22-5.24-4.63.85-6.7,6-8.18,9.81a38.52,38.52,0,0,0-2.66,12.76c-.23,9.68,14.77,9.65,15,0Z" transform="translate(-145.11 -51.48)"/><path class="h" d="M315.05,614.93a86.94,86.94,0,0,1,12.6-13.2c4.21-3.6,10.42-5.48,10.42-11.92,0-6.09-6.27-8.8-11.28-6.48-24.65,11.45-45.79,30.84-64.86,49.84l12.54,7.3c3.41-11.44,13.32-19.1,22.36-26.14,9.95-7.76,20-15.25,26.88-26.07,4.1-6.47-3.9-14-10.26-10.26-19,11-34.45,26.76-50.85,41.17l10.61,10.61c6.08-6.17,11.56-12.88,17.33-19.33s-1.43-15.89-9.09-11.78c-9.05,4.85-15.47,13-22.18,20.5l10.6,10.61c4.7-5.61,8.82-11.65,13.18-17.52,5.35-7.21-5.75-14.37-11.78-9.09-13.1,11.49-17.25,28.85-28,42l12.8,5.31c-.23-1.91-1.16-4.6-1.33-6l-14,3.78c6.53,13,20.73,9.55,30.77,3.17,5.74-3.64,11-8.12,16.18-12.49,3.89-3.27,6.28-6,10.65-8l-9.09-11.78c-10.93,8.74-23.27,15.5-33.34,25.34-5.64,5.51.22,14,7.3,12.53,6.4-1.34,12.57-5,18.17-8.24a218.38,218.38,0,0,0,24.44-16.55c7.68-5.92,15.2-12.18,21.48-19.6,4.37-5.15,9.68-12.3,8.75-19.51-.67-5.19-6-9.92-11.28-6.47-15.65,10.2-27.78,26.23-37.36,42-3.29,5.42,2.15,13.17,8.47,11,12.54-4.28,22.89-13.35,32-22.73a157.7,157.7,0,0,0,23.85-31.39c3.5-6.15-3.86-14.81-10.26-10.26-13.32,9.49-25.81,25.42-28.78,41.82-.95,5.27,3.35,11.12,9.23,9.23,17.11-5.51,28.24-21.94,35.14-37.67,3.6-8.21,5.46-16.83,8.41-25.26,3.53-10.1,9.32-19.26,15.6-27.86l-14-3.78c-2.85,26.71-16.27,51.42-29.64,74.21l14,3.79c-.2,2,.35-1.73.46-2.25.41-1.92.9-3.83,1.36-5.74,1.09-4.42,2.18-8.85,3-13.33,1.26-6.77,3.1-17.37-3.22-22.39-7.54-6-17.28-1.23-24.33,3.23a113,113,0,0,0-18.75,15.18c-5.3,5.25.06,14.63,7.3,12.53,7.75-2.25,14.78-6.85,21.21-11.59,7-5.14,14.08-11,18.61-18.52,2.88-4.77-.8-11.47-6.48-11.29-18.85.62-30.62,17-47.33,22.94l9.23,9.22c1.62-6.82,4-13.54,3.6-20.66-.2-3.22-2.12-6.48-5.5-7.23-7-1.55-13.35-.22-19.78,2.76-6.74,3.12-3.48,14.49,3.78,14,13.4-.95,26-5.84,39.33-7.33q-2.64-6.4-5.3-12.8c-5.54,6.81-15.21,8.25-22.45,12.69-8.24,5-12.22,12.65-10.28,22.07,1.86,9.08-3.15,17.81-6.16,26.18-3.13,8.72-3.68,16.63-12.26,21.88l9.09,11.78c11.4-10.77,22.61-21.79,31.16-35,4-6.16,6.46-12.87,8.67-19.81,2-6.29,4-12.42,8.84-17.15,6.9-6.79-3.71-17.39-10.61-10.6-10.49,10.32-11.21,24.86-18.12,37.12-7.62,13.52-19.38,24.33-30.55,34.88-6.21,5.87,1.83,16.23,9.09,11.78,8.54-5.23,13.92-12.74,16.75-22.29,1.46-4.94,2.8-9.75,4.66-14.58,2.11-5.49,4.2-11,4.83-16.89.44-4.14-.29-8.1-1.12-12.15-.06-.33-.32-.1.3-1.2.92-1.6,2.84-2.76,4.37-3.7,8.21-5,18-6.52,24.4-14.37,3.59-4.4,2-13.62-5.31-12.8-13.27,1.49-26,6.38-39.33,7.33q1.89,7,3.79,14a12.84,12.84,0,0,1,8.22-1.24l-5.51-7.24c.36,5.76-1.75,11.14-3.06,16.68-1.24,5.17,3.57,11.24,9.22,9.22,8.16-2.91,15.18-7.82,22.33-12.59,6.14-4.11,13.33-9.56,21-9.81q-3.24-5.64-6.47-11.28c-3.17,5.24-8.41,9.49-13.23,13.14-5.26,4-11.22,8.22-17.63,10.08l7.3,12.53a109.45,109.45,0,0,1,12.74-10.81,58,58,0,0,1,8.85-5.32c.39-.18,3.2-.83,2.32-.75.95,0,1,0,.16-.07a3.39,3.39,0,0,1-2.5-2.43c.57,1.45.31,3.86,0,6.49a77.67,77.67,0,0,1-1.79,9c-1.41,6.16-3.29,12.24-4,18.55-.8,7.72,10.44,9.82,14,3.78,14.85-25.3,28.54-52.21,31.69-81.78.35-3.27-2.54-6.42-5.5-7.23-3.5-1-6.46.69-8.47,3.44a125.79,125.79,0,0,0-14.62,25.14c-3.44,8.14-5.24,16.69-8.23,25-4.58,12.68-13.6,29.37-27.34,33.79l9.23,9.23c2.27-12.53,11.59-25.53,21.88-32.85L338.76,578a146.54,146.54,0,0,1-20.48,27.28c-7.28,7.81-16,16.42-26.37,19.94q4.23,5.52,8.47,11c8.21-13.52,18.55-27.88,32-36.64l-11.29-6.48a10.36,10.36,0,0,1,.09,1.47c0,1.76.36-1.7-.07.13-.52,2.18-.07.64-.95,2.3a31.78,31.78,0,0,1-5.22,7.07,130.9,130.9,0,0,1-18.46,16.58,223,223,0,0,1-21.78,14.67c-5.67,3.35-10.08,6.1-15.44,7.22l7.3,12.53c10-9.79,22.43-16.61,33.33-25.33,2.6-2.07,2.74-6.42,1.18-9.09-2.22-3.78-6.55-4.4-10.26-2.69-7.84,3.62-14.23,11.12-21,16.34-3.61,2.79-8.49,6.21-12,7.5-.3.11-3.18.76-1.66.57a10.3,10.3,0,0,1-1.36,0q1.34.27.06,0c-.66-.15-.36-.31,0,0-.59-.53-.36-.41-1-1.73-3.2-6.4-14.88-3.67-14,3.79.23,1.9,1.16,4.59,1.33,6,.69,5.64,8.14,11,12.8,5.3,10.65-13,15.22-30.8,28-42l-11.77-9.09c-3.6,4.84-7,9.86-10.83,14.48-6.12,7.32,4.1,17.9,10.6,10.61,5.83-6.54,11.3-13.95,19.15-18.16l-9.09-11.78c-5.76,6.46-11.25,13.16-17.33,19.33-6.85,7,3.4,17,10.61,10.61C288.66,616.2,303.11,601.37,321,591l-10.26-10.26c-6.73,10.63-17.92,17.77-27.61,25.45-10.21,8.09-19.34,17.56-23.14,30.34-2.17,7.28,7.28,12.53,12.53,7.3,18.25-18.19,38.22-36.54,61.82-47.49l-11.29-6.48v.67l3.72-6.48c-9.8,6.2-17.7,14.18-24.69,23.36-2.49,3.26-.52,8.38,2.69,10.26,3.85,2.26,7.78.55,10.26-2.69Z" transform="translate(-145.11 -51.48)"/><path class="h" d="M404.24,489.81c-8,8.67-14.34,28-17.67,40-4.67,13.33-7,28.22-11,42.22-3.34,14-5.16,18.16-15.83,28.83-11.33,11.33-29.15,24.28-41.82,33.62-17.33,11.33-27.59,19.2-47.47,25.77-10.08,3.34-40.46,4.71-37.8-12.63,1.34-.66,5.94-6.48,7.94-7.14-2,.66-15.86-.65-17.86,0C238,629.83,250.92,620,259.59,603.36c8.67-15.34,29.65-15.22,43.65-23.88-7.33-.67-21.69-8.17-19-15.5,2-6,17.41-20,35.24-17-6,11.33,7.94,6.45,13.94,4.45,10-2.67,15.84-10.49,23.17-16.49,5.33-5.33,21.33-11.84,19.33-21.17-1.33-7.33-16.33-6.33-23.66-6.33,10.66-7.34,24.66-19.91,32.66-29.91-4.66,4-12.33,10.91-15,14.91-2.66,1.33-4,3.33-6.66,5.33,7.33-3.33,13.93-.67,19.26-1.33,4-.67,10.4-11.67,11.74-1.67.66,7.33-16.34,31-20.34,37-2.66-5.33-2-12-2-18" transform="translate(-145.11 -51.48)"/><path class="h" d="M398.93,484.51c-12.15,13.75-17.07,33.69-22,51-3.17,11.12-5.42,22.5-8.37,33.69-1.85,7-3.24,13.8-7.84,19.6-5.9,7.44-13.52,13.73-20.85,19.69-8,6.5-16.24,12.73-24.62,18.72-14.62,10.44-31.05,21.92-48.71,26.4a48.05,48.05,0,0,1-17.31,1,18.08,18.08,0,0,1-8.34-2.78,8.71,8.71,0,0,1-.91-1.28c.53,1.2-.11-1,0-.25,0-.06.09-2,.16-2.6l-3.71,6.48c2.79-1.88,5.61-6,7.94-7.15,7.93-3.85,2.18-15.5-5.78-13.71,2.46-.55-1.15-.07-2.08-.09-2,0-4-.13-6-.21-3.25-.12-6.6-.4-9.8.32L226.49,647c7.77-5.42,15.56-11,22.46-17.49,7.19-6.79,12.33-14.56,17.46-22.91,3.81-6.21,10.92-9,17.5-11.31,7.85-2.73,15.92-5,23.11-9.31,6.94-4.13,3.19-13.12-3.78-14A22.84,22.84,0,0,1,293,567.1c-.24-.21-2.15-2.41-1.53-1.25.48.88-.75.91.28-.11a8.37,8.37,0,0,0,.86-1.18c5.71-6.95,15.9-11.63,24.91-10.31l-4.48-11c-2.77,5.64-4.08,13.08,2.3,16.89,4.57,2.73,10.44,1.47,15.24.12,6-1.7,11.92-3.81,17-7.54,5.61-4.09,10.17-9.37,15.64-13.6,8.67-6.7,23.81-14,19.84-27.7-3.67-12.68-20.47-11.48-30.79-11.43L356,514c12.57-8.76,24.51-19.17,34.19-31.08,6.05-7.44-3.2-17-10.61-10.6a146.51,146.51,0,0,0-11.73,11c-.7.76-1.4,1.52-2.05,2.32-.42.53-.84,1.06-1.25,1.6-.89,1.15-.78,1,.31-.43-2.53,1.63-4.61,3.9-6.95,5.79-5.7,4.6.46,15.25,7.3,12.53,7.46-3,16,1.36,23-3a33,33,0,0,0,3.63-2.83c2.22-1.84,2.84-1.27-1.55-2.66,8.78,2.78-5.32-.46-3.47-1.64.27-.17.21,0-.15.62a22.08,22.08,0,0,0-.84,2.61c-4.37,10.73-12,20.3-18.41,29.86h12.95c-1.85-4.24-1-9.71-1-14.21.08-9.65-14.92-9.66-15,0-.06,7.67-.09,14.64,3,21.79,2.42,5.56,10.16,4.15,12.95,0,3.9-5.81,7.91-11.54,11.6-17.49,3.78-6.11,8.27-13,9.47-20.21,1.6-9.59-6.47-18.61-15.87-12.73a26,26,0,0,0-4.69,3.76,2.16,2.16,0,0,1-.91.59c2.26-1.11,0-.43-1.37-.5-6-.3-11.58-.74-17.37,1.56l7.3,12.53c7.7-6.21,14.11-13.72,21.67-20.24l-10.61-10.6A153.7,153.7,0,0,1,348.45,501c-5.84,4.07-4.09,14,3.79,14,3.55,0,7.1-.14,10.65.08a22,22,0,0,1,4.63.69c.27.07,1.55.34,1.76.68-.06-.1-.41-.25-.39-.38.14-1.11-1.21.65-.89.47-1.18.66-2.27,2.41-3.38,3.32-3,2.42-6.32,4.33-9.38,6.61-7,5.21-12.67,13-20.73,16.7a56.84,56.84,0,0,1-9.34,3c-.5.12-3.2.52-3.23.58-.14.25,2.23,1.24,2.87,2.37.81,1.43-.2,4.41,1.13,1.7,1.88-3.83.67-10.27-4.48-11-15.73-2.3-34.13,4.24-42.72,18.38-9.5,15.64,11.71,27.23,24.5,28.81l-3.79-14c-13.69,8.16-31.59,8.51-42.54,21.29-3,3.53-4.94,7.68-7.46,11.55A67.14,67.14,0,0,1,241,616.23C234.38,623,226.7,628.59,218.92,634c-6.88,4.8-2.79,15.64,5.78,13.71-2.46.55,1.15.07,2.07.09,2,0,4,.13,6,.21,3.24.13,6.59.4,9.8-.32L236.79,634c-3.44,1.67-5.82,5-8.55,7.61,1.92-1.81-2.06,2.2-2.08,2.23a9.32,9.32,0,0,0-1.08,4.26,18.09,18.09,0,0,0,.61,6.71c2.27,7.57,9.4,11.9,16.71,13.64,17.72,4.23,35.19-1.54,50.84-9.69,20.69-10.77,39.88-25.5,57.87-40.22,8.37-6.85,16.85-14.16,23.19-23,5.65-7.87,7.53-17.6,9.91-26.8,3.61-14,6.83-27.92,11-41.75,3.21-10.69,6.8-23.33,14.35-31.88,6.37-7.21-4.2-17.86-10.61-10.6Z" transform="translate(-145.11 -51.48)"/><path class="h" d="M407.4,491.81v-.67a7.5,7.5,0,0,0-15,0v.67a7.5,7.5,0,1,0,15,0Z" transform="translate(-145.11 -51.48)"/><path class="i" d="M377.23,465.8c6.25-6.46,10.4-14.85,17.62-20.37,1.9-1.45,0-4.71-1.89-3.24-7.55,5.76-11.87,14.23-18.38,21-1.68,1.74,1,4.39,2.65,2.65Z" transform="translate(-145.11 -51.48)"/><path class="i" d="M368.85,473.43c19.32-11.18,27.87-33.39,41-50.3L407,420.86c-12,15.83-26.66,29.32-40.37,43.62-1.41,1.47.5,4.27,2.27,2.95,5.7-4.26,12.13-8.62,14.2-15.79.67-2.32-2.95-3.31-3.62-1-1.76,6.1-7.66,9.95-12.47,13.55l2.27,2.94c13.94-14.54,28.75-28.28,41-44.37,1.28-1.68-1.64-4-2.94-2.28-12.9,16.55-21.42,38.8-40.29,49.71-2.09,1.21-.2,4.45,1.89,3.24Z" transform="translate(-145.11 -51.48)"/><path class="i" d="M347.23,497.14c9.06-9.85,17.25-20.48,26.67-30,1.7-1.73-.95-4.38-2.65-2.66-9.42,9.53-17.61,20.16-26.67,30-1.64,1.78,1,4.44,2.65,2.66Z" transform="translate(-145.11 -51.48)"/><path class="i" d="M397.27,434.66a.75.75,0,0,0,0-1.5.75.75,0,0,0,0,1.5Z" transform="translate(-145.11 -51.48)"/><path class="i" d="M308.67,537.05a.75.75,0,0,0,0-1.5.75.75,0,0,0,0,1.5Z" transform="translate(-145.11 -51.48)"/><path class="a" d="M174.58,507.19l.08,0Z" transform="translate(-145.11 -51.48)"/><path class="a" d="M161.85,503l.07,0Z" transform="translate(-145.11 -51.48)"/><path class="a" d="M162,503l1.62.53Z" transform="translate(-145.11 -51.48)"/><path class="a" d="M164.68,503.91l.57.19Z" transform="translate(-145.11 -51.48)"/><path class="a" d="M165.62,504.22l.94.32Z" transform="translate(-145.11 -51.48)"/><path class="a" d="M166.69,504.58l1.82.6Z" transform="translate(-145.11 -51.48)"/><path class="a" d="M170.29,505.77l.57.19Z" transform="translate(-145.11 -51.48)"/><path class="a" d="M171.13,506.05l3.23,1.06Z" transform="translate(-145.11 -51.48)"/><path class="a" d="M723.64,107.27c-62.49-83.95-295.23-71.83-436.21,33.11C170.65,227.32,127.8,384.73,152.21,484.58a60.7,60.7,0,0,1,1.4,5.93c.82,3.33,0,0,1.53,4.87a32,32,0,0,1,1.16,4.12c0,.07.72,2.45.73,2.51,5.07,17,11.52,35.8,18.18,48.55C199.83,597.65,204,586.37,204,586.37c30.57-4.73,143.47-122,254.21-204.4C795.61,130.76,750.89,143.88,723.64,107.27Z" transform="translate(-145.11 -51.48)"/><path class="j" d="M846.92,294.64c6.69,7.9,3.26,13.89,3,21-.66,16.75-12.56,33.64-40.66,53.05-28.45,19.65-67.18,43.4-108.54,76.8-99.54,80.38-154.39,166-192.05,120-8.67-10.57-25-18.89-16.56-33.5,5.59-9.65-.65-4.77,33-23.54,24.32-13.57,25.51-18.4,44.46-30.91,38.52-25.42,71.19-74.27,90.71-91.66C677,371,750.56,308.29,762.55,299,824.48,251,831.9,276.9,846.92,294.64Z" transform="translate(-145.11 -51.48)"/><path class="j" d="M684.18,86.94C639.64,28.08,427.22,47.7,326,120.11c-67,47.91-105.51,103.39-88.11,173.4,5.13,36.13,12.62,64.92,15.92,74.42,17.94,51.61,62.73,51.61,67,37.56,25.46-17.82,25.46-17.82,104.38-75.62C665.74,153.72,703.6,112.61,684.18,86.94Z" transform="translate(-145.11 -51.48)"/><path class="k" d="M302.05,542s9.17-2.36,14.76-1.88c0,0,4.83.12,6.44,1.13a6,6,0,0,1,3.13,4.91s9.38-2.87,10-3.91c0,0,4.59-2.7,5.49-3.84,0,0,4.36-3.79,5.59-5.07a80.67,80.67,0,0,1,7.82-6.91s3.28-2.35,4.16-2.89c0,0,3.73-2.44,5-3.48a12.4,12.4,0,0,0,8.13-4.81s6.4-6.75-6.8-7.75c0,0-17.62,1-9.66-10.71,0,0,9.91-12,20-17.29,0,0,8.79-6.34,11.18,2.83,0,0,1.32,2.22,0,13.5,0,0-.42,10.63,10-2.67,0,0,7.53-4.22,13.3-6.87a42.06,42.06,0,0,0,19-13.56s4.11-4.28,3.52-9.77c0,0,.61-3.52-5.58-7.24,0,0-2.9-1.32-4.25-1.79a44.57,44.57,0,0,1-5.4-2.62s-6.73-4,1.1-10.81l10-8.76,14.93-13.09,3.07-2.69s8.87-7,15.45,5.79c0,0,1.14,6.72,5.69,8.83,0,0,3.52,2.67,10.56.92,0,0,6.17-.93,13.59-6.5,0,0,9.2-6.87,11-10.6a18.42,18.42,0,0,0,4.68-11.46,7.46,7.46,0,0,0-2.27-6.14s-.75-1.46-4.72-3.18c0,0-4.68-2.22-5.57-6.32,0,0-1.14-3.77,2.31-9.38,0,0,2.63-3.53,3.13-4.06,0,0,7.9-9,19.53-12.59,0,0,5.17-1.56,8.56-.95,0,0,26.16-15.27,28.34-52.12l-38.63,29.09L501.4,350.34l-41.16,30.6-13.63,10.33-15.47,12.09-15.25,12.13-8.5,6.91-7.7,6.35Z" transform="translate(-145.11 -51.48)"/><path class="l" d="M192,579.46s-9.76,35.08,3.12,46c0,0,13.45,12.81,23.49,9.59,0,0,13.55-8.72,17-12.36,0,0,9.33-7.86,11.84-11.56,0,0,4.5-6.16,5.68-8.29,0,0,3.69-6.73,6.3-9.14a44.25,44.25,0,0,1,8.67-7.06,118.11,118.11,0,0,1,11.23-5.26l3-1.09s13.55-3.6-2.94-8.95c0,0-2.21-1.22-2-3.17a14.33,14.33,0,0,1,1.52-8.27s3.75-6.54,8.46-10.29A43.84,43.84,0,0,1,300,542.38l8.61-2.07,11.25-.32,7.3-12.52L352.4,501.2l51.84-56.69,3.15-22.11-12.25,10.27-10.93,9L376.84,448l-8.19,7-5.06,4.36-5.3,4.57-4.52,3.9-4.44,3.85-3.77,3.27-7.18,6.28-3.52,3.1-3.29,2.87L329,489.43l-3.32,2.89-4,3.55-2.76,2.43-3.6,3.18-3.44,3-4.3,3.77-4,3.5-4.67,4.09-4.06,3.53-4.51,4-5.2,4.47-4.32,3.74-3.89,3.4L272,539.09l-6.48,5.51-8,6.71-6.41,5.26-8.39,6.64S228.61,574.39,222.52,578a94.06,94.06,0,0,1-11,6.33,34.08,34.08,0,0,1-7.32,2.48s-.64,1.57-3,1.09a9.89,9.89,0,0,1-4.13-2.57s-3-3.16-3.35-3.57Z" transform="translate(-145.11 -51.48)"/><path class="m" d="M742.12,140.28s1.4-3.95,7.46-2.47c0,0,2.38,0,6,5.34a45.67,45.67,0,0,1,5.7,31.26s-5.69,15-33.92,20.28c0,0-24.57,1.39-40.67,10l14.78-13.26,9-8.53,7-6.92,7-7.43L730,162.1l4-5.28,3-4.48,1.78-3.17s1.8-3.63,2.11-4.48A20.42,20.42,0,0,0,742.12,140.28Z" transform="translate(-145.11 -51.48)"/><path class="n" d="M763.07,268.48c-1.19-19-7.81-37.07-9-56-.6-9.61-15.6-9.67-15,0,1.19,19,7.81,37.06,9,56,.6,9.6,15.61,9.66,15,0Z" transform="translate(-145.11 -51.48)"/><path class="n" d="M737.07,284.48c-.19-10.42-3.61-19.71-7.64-29.16-3.73-8.73-7.08-17.19-6.36-26.84s-14.28-9.59-15,0c-.75,10.09,2.09,19.48,6,28.68,3.72,8.83,7.86,17.56,8,27.32s15.18,9.67,15,0Z" transform="translate(-145.11 -51.48)"/><path class="n" d="M709.07,312.48a145.42,145.42,0,0,0-11.27-54c-1.58-3.76-4.9-6.43-9.22-5.24-3.56,1-6.83,5.45-5.24,9.23a134.55,134.55,0,0,1,10.73,50c.09,9.66,15.09,9.67,15,0Z" transform="translate(-145.11 -51.48)"/><path class="n" d="M678.8,337.48c-5.54-22.78-4.38-49.61-17.75-69.79-5.32-8-18.31-.52-12.95,7.57,6.13,9.26,8.19,20.69,10.12,31.45,2.08,11.57,3.33,23.32,6.12,34.76,2.29,9.4,16.75,5.41,14.46-4Z" transform="translate(-145.11 -51.48)"/><path class="n" d="M652.07,360.48a172.6,172.6,0,0,0-9.27-45c-3.18-9.06-17.67-5.16-14.46,4a157.79,157.79,0,0,1,8.73,41c.7,9.58,15.7,9.65,15,0Z" transform="translate(-145.11 -51.48)"/><path class="n" d="M623.8,378.48c-7.33-20.59-6.88-42.89-12-64-2.27-9.4-16.74-5.41-14.46,4,5.11,21.11,4.66,43.41,12,64,3.22,9,17.72,5.15,14.46-4Z" transform="translate(-145.11 -51.48)"/><path class="n" d="M601.8,401.48c-2.19-12.62-6-24.86-10-37-3-9.13-17.52-5.22-14.46,4,4,12.14,7.81,24.38,10,37,1.65,9.52,16.11,5.47,14.46-4Z" transform="translate(-145.11 -51.48)"/><path class="n" d="M576.8,411.48c-2.43-12.44-11.83-21.35-16-33-3.22-9-17.72-5.14-14.46,4,4.12,11.53,13.63,20.92,16,33,1.86,9.49,16.31,5.46,14.46-4Z" transform="translate(-145.11 -51.48)"/><path class="n" d="M549.8,439.48c-6-23.13-10.08-49.45-25.92-68.31-6.24-7.41-16.79,3.26-10.61,10.61,6.72,8,10.22,18.59,13.29,28.4,3.42,11,5.88,22.19,8.78,33.29,2.44,9.35,16.91,5.38,14.46-4Z" transform="translate(-145.11 -51.48)"/><path class="n" d="M523.88,464.17c-9-9.52-9.16-24.46-15.83-35.48-5-8.26-18-.72-12.95,7.57,7.53,12.45,7.72,27.49,18.17,38.52,6.66,7,17.25-3.59,10.61-10.61Z" transform="translate(-145.11 -51.48)"/><path class="n" d="M456.05,469.69c-5.26-9.16-3.58-21.35-7.25-31.21-3.34-9-17.84-5.09-14.46,4,4.2,11.29,2.64,24.14,8.76,34.79,4.81,8.39,17.77.83,12.95-7.57Z" transform="translate(-145.11 -51.48)"/><path class="n" d="M489.8,488.48c-3.48-17.48-6.42-35.82-14.75-51.79-4.48-8.58-17.42-1-12.95,7.57,7.65,14.68,10,32.15,13.24,48.21,1.89,9.48,16.35,5.46,14.46-4Z" transform="translate(-145.11 -51.48)"/><path class="n" d="M467.8,509.48a206.23,206.23,0,0,1-13-45c-.65-4-5.61-6.23-9.22-5.24-4.26,1.18-5.89,5.2-5.24,9.23a205.13,205.13,0,0,0,13,45c1.55,3.78,4.92,6.42,9.23,5.24,3.58-1,6.79-5.44,5.23-9.23Z" transform="translate(-145.11 -51.48)"/><path class="n" d="M431.05,534.69c-7.4-12-11-26.4-13.25-40.21-.64-4-5.61-6.23-9.22-5.24-4.27,1.18-5.89,5.2-5.24,9.23,2.4,15,6.7,30.73,14.76,43.79,5.06,8.22,18,.69,12.95-7.57Z" transform="translate(-145.11 -51.48)"/><path class="n" d="M407.05,555.69c-8.57-19.43-16.58-41-19-62.21-.45-4-3.12-7.5-7.5-7.5-3.7,0-8,3.44-7.5,7.5,2.72,24.08,11.29,47.71,21,69.78,1.64,3.74,7,4.53,10.26,2.69,3.84-2.19,4.31-6.58,2.69-10.26Z" transform="translate(-145.11 -51.48)"/><path class="n" d="M377.8,583.48c-3-13.61-7.57-27.05-8.73-41-.79-9.57-15.8-9.65-15,0,1.27,15.36,6,30,9.27,45,2.07,9.45,16.53,5.44,14.46-4Z" transform="translate(-145.11 -51.48)"/><path class="n" d="M347.8,606.48c-5-15.29-6.9-31.27-10-47-1.86-9.48-16.32-5.46-14.46,4,3.09,15.72,5,31.71,10,47,3,9.16,17.46,5.24,14.46-4Z" transform="translate(-145.11 -51.48)"/><path class="n" d="M312.36,627c-3.79-2.75-5.87-11.22-7.21-16-1.88-6.72-3.1-13.62-4.35-20.49-1.72-9.51-16.17-5.47-14.46,4,2.75,15.16,5,35.71,18.45,45.48,3.31,2.41,8.35.57,10.26-2.69,2.22-3.79.61-7.86-2.69-10.26Z" transform="translate(-145.11 -51.48)"/><path class="n" d="M283.05,645.69c-3-5.14-4-12.25-5-18.3a131.08,131.08,0,0,1-2-20.91c-.07-9.67-15.07-9.68-15,0a164,164,0,0,0,2.29,23.59c1.2,7.78,2.69,16.3,6.74,23.19,4.89,8.33,17.86.79,12.95-7.57Z" transform="translate(-145.11 -51.48)"/><path class="n" d="M261.8,655.48c-1.07-7.05-2.92-14-4-21-.61-4.05-5.63-6.22-9.22-5.24-4.29,1.18-5.86,5.19-5.24,9.23,1.08,7,2.92,13.95,4,21,.62,4,5.64,6.22,9.23,5.24,4.28-1.18,5.85-5.19,5.23-9.23Z" transform="translate(-145.11 -51.48)"/><path class="o" d="M656,73.57C624.21,37.89,460.14,49.06,387.93,93c-47.78,29-75.21,63.2-62.79,105.64,3.66,21.9,9,39.36,11.36,45.12C349.3,275,381.27,275,384.32,266.48c18.17-10.81,18.17-10.81,74.48-45.85C630.43,113.85,669.85,89.14,656,73.57Z" transform="translate(-145.11 -51.48)"/><polygon class="p" points="440.25 85.51 440.25 85.51 440.25 85.51 440.25 85.51 440.25 85.51"/><path class="p" d="M774.08,242.28a4,4,0,1,1,3.75-4.72A4.27,4.27,0,0,1,774.08,242.28Z" transform="translate(-145.11 -51.48)"/><path class="p" d="M645.52,79.15c0,6.45-7.33,11.68-16.38,11.68s-16.39-5.23-16.39-11.68,7.34-11.69,16.39-11.69S645.52,72.69,645.52,79.15Z" transform="translate(-145.11 -51.48)"/><path class="p" d="M770.92,229c-2.88,1.85-4.1-7.07-6.72-11.13s-5.8-8.09-2.91-9.95,4.7.43,7.32,4.5S773.8,227.09,770.92,229Z" transform="translate(-145.11 -51.48)"/><path class="p" d="M594.78,77.36c10.9,24.92-60.48,23.21-95.64,38.59s-70.68,35.16-81.58,10.24,9.34-36.29,44.5-51.67S583.89,52.45,594.78,77.36Z" transform="translate(-145.11 -51.48)"/></svg>